<svg xmlns="http://www.w3.org/2000/svg" preserveAspectRatio="xMidYMid meet" viewBox="-3.5741017 -0.067735024 7.1482034 4.1354704"><path fill-rule="evenodd" d="M -4.440892098500626e-16 -0.057735026918962484 L 3.5641016151377545 2.0 L 4.440892098500626e-16 4.057735026918962 L -3.5641016151377536 2.0 L -4.440892098500626e-16 -0.057735026918962484 Z M 3.3641016151377547 1.9999999999999996 L 2.5441246180922037 2.4734139399735495 L 0.3039058011260054 0.23319512300735065 L 3.3641016151377547 1.9999999999999996 Z M 2.454467070875399 2.5251777489940537 L 1.7503520777580996 2.9316987298107775 L 0.23319512300735085 0.30390580112600557 L 2.454467070875399 2.5251777489940537 Z M 1.6637495373796558 2.9816987298107778 L 0.959634544262356 3.388219710627502 L 0.14659258262890676 0.3539058011260052 L 1.6637495373796558 2.9816987298107778 Z M 0.8699769970455502 3.439983519648006 L 0.04999999999999982 3.9133974596215557 L 0.050000000000000024 0.37978770563625763 L 0.8699769970455502 3.439983519648006 Z M -0.04999999999999976 3.9133974596215553 L -0.8699769970455495 3.4399835196480066 L -0.04999999999999997 0.37978770563625763 L -0.04999999999999976 3.9133974596215553 Z M -0.9596345442623553 3.388219710627503 L -1.6637495373796545 2.981698729810778 L -0.14659258262890684 0.3539058011260056 L -0.9596345442623553 3.388219710627503 Z M -1.7503520777580985 2.9316987298107784 L -2.454467070875398 2.5251777489940537 L -0.2331951230073506 0.30390580112600535 L -1.7503520777580985 2.9316987298107784 Z M -2.544124618092204 2.47341393997355 L -3.3641016151377547 1.9999999999999998 L -0.30390580112600524 0.23319512300735057 L -2.544124618092204 2.47341393997355 Z " fill-opacity="0.2" stroke="rgb(200,0,0)" stroke-width="0.01"/><path d="M 0.0 0.0 L 0.8660254037844387 0.49999999999999994" stroke="rgb(100,0,200)" stroke-width="0.01"/><path d="M 0.0 0.0 L 0.7071067811865476 0.7071067811865476" stroke="rgb(100,0,200)" stroke-width="0.01"/><path d="M 0.0 0.0 L 0.5000000000000001 0.8660254037844386" stroke="rgb(100,0,200)" stroke-width="0.01"/><path d="M 0.0 0.0 L 0.25881904510252074 0.9659258262890683" stroke="rgb(100,0,200)" stroke-width="0.01"/><path d="M 0.0 0.0 L 6.123233995736766e-17 1.0" stroke="rgb(100,0,200)" stroke-width="0.01"/><path d="M 0.0 0.0 L -0.25881904510252063 0.9659258262890683" stroke="rgb(100,0,200)" stroke-width="0.01"/><path d="M 0.0 0.0 L -0.4999999999999998 0.8660254037844387" stroke="rgb(100,0,200)" stroke-width="0.01"/><path d="M 0.0 0.0 L -0.7071067811865475 0.7071067811865476" stroke="rgb(100,0,200)" stroke-width="0.01"/><path d="M 0.0 0.0 L -0.8660254037844387 0.49999999999999994" stroke="rgb(100,0,200)" stroke-width="0.01"/><circle cx="0.0" cy="0.0" r="0.02" fill-opacity="0.2" stroke="rgb(100,0,200)" stroke-width="0.01"/><circle cx="3.4641016151377544" cy="2.0" r="0.02" fill-opacity="0.2" stroke="rgb(100,0,200)" stroke-width="0.01"/><circle cx="0.0" cy="4.0" r="0.02" fill-opacity="0.2" stroke="rgb(100,0,200)" stroke-width="0.01"/><circle cx="-3.4641016151377544" cy="2.0" r="0.02" fill-opacity="0.2" stroke="rgb(100,0,200)" stroke-width="0.01"/></svg>