<svg xmlns="http://www.w3.org/2000/svg" preserveAspectRatio="xMidYMid meet" viewBox="-0.03 -0.03 4.0600004 4.0600004"><circle cx="0.0" cy="0.0" r="0.02" fill-opacity="0.2" stroke="rgb(100,0,200)" stroke-width="0.01"/><circle cx="4.0" cy="0.0" r="0.02" fill-opacity="0.2" stroke="rgb(100,0,200)" stroke-width="0.01"/><circle cx="4.0" cy="4.0" r="0.02" fill-opacity="0.2" stroke="rgb(100,0,200)" stroke-width="0.01"/><circle cx="0.0" cy="4.0" r="0.02" fill-opacity="0.2" stroke="rgb(100,0,200)" stroke-width="0.01"/><path fill-rule="evenodd" d="M 0.0 0.0 L 4.0 0.0 L 4.0 4.0 L 0.0 4.0 L 0.0 0.0 Z M 0.30136697460629236 0.10000000000000005 L 1.4171265665502768 0.5621627553310686 L 1.8792893218813453 0.10000000000000005 L 0.30136697460629236 0.10000000000000005 Z M 0.2630986313697835 0.19238795325112876 L 1.8576120467488706 1.786901368630216 L 1.3905898800772576 0.6594101199227411 L 0.2630986313697835 0.19238795325112876 Z M 1.7869013686302164 1.8576120467488713 L 0.6594101199227418 1.390589880077259 L 0.19238795325112873 0.2630986313697835 L 1.7869013686302164 1.8576120467488713 Z M 0.5621627553310687 1.4171265665502768 L 0.10000000000000012 1.8792893218813451 L 0.10000000000000002 0.3013669746062924 L 0.5621627553310687 1.4171265665502768 Z M 0.1707106781186547 1.9500000000000002 L 0.6328734334497235 1.4878372446689312 L 1.748633025393708 1.95 L 0.1707106781186547 1.9500000000000002 Z M 1.4878372446689305 0.6328734334497241 L 1.9499999999999997 0.1707106781186551 L 1.95 1.7486330253937084 L 1.4878372446689305 0.6328734334497241 Z M 3.9 0.30136697460629225 L 3.4378372446689314 1.4171265665502766 L 3.9 1.8792893218813451 L 3.9 0.30136697460629225 Z M 3.6986330253937076 3.9 L 2.5828734334497234 3.4378372446689314 L 2.1207106781186544 3.9000000000000004 L 3.6986330253937076 3.9 Z M 0.10000000000000044 3.6986330253937076 L 0.5621627553310689 2.5828734334497234 L 0.10000000000000014 2.1207106781186544 L 0.10000000000000044 3.6986330253937076 Z M 3.807612046748871 0.2630986313697834 L 2.2130986313697845 1.8576120467488704 L 3.340589880077259 1.3905898800772574 L 3.807612046748871 0.2630986313697834 Z M 3.7369013686302166 3.807612046748871 L 2.142387953251129 2.2130986313697845 L 2.6094101199227424 3.340589880077259 L 3.7369013686302166 3.807612046748871 Z M 0.19238795325112915 3.7369013686302166 L 1.786901368630216 2.142387953251129 L 0.6594101199227413 2.6094101199227424 L 0.19238795325112915 3.7369013686302166 Z M 2.142387953251129 1.7869013686302164 L 2.609410119922741 0.6594101199227418 L 3.7369013686302166 0.19238795325112865 L 2.142387953251129 1.7869013686302164 Z M 2.2130986313697836 2.142387953251129 L 3.3405898800772578 2.609410119922741 L 3.807612046748871 3.7369013686302166 L 2.2130986313697836 2.142387953251129 Z M 1.8576120467488715 2.213098631369783 L 1.3905898800772591 3.3405898800772578 L 0.2630986313697839 3.807612046748871 L 1.8576120467488715 2.213098631369783 Z M 2.5828734334497234 0.5621627553310687 L 2.120710678118655 0.1000000000000001 L 3.6986330253937076 0.09999999999999991 L 2.5828734334497234 0.5621627553310687 Z M 3.437837244668931 2.5828734334497234 L 3.8999999999999995 2.120710678118655 L 3.9 3.6986330253937076 L 3.437837244668931 2.5828734334497234 Z M 1.4171265665502772 3.437837244668931 L 1.8792893218813456 3.8999999999999995 L 0.30136697460629286 3.9 L 1.4171265665502772 3.437837244668931 Z M 2.05 0.1707106781186547 L 2.512162755331069 0.6328734334497235 L 2.05 1.748633025393708 L 2.05 0.1707106781186547 Z M 3.829289321881345 2.05 L 3.3671265665502763 2.512162755331069 L 2.2513669746062916 2.0500000000000003 L 3.829289321881345 2.05 Z M 1.9500000000000006 3.829289321881345 L 1.4878372446689314 3.3671265665502763 L 1.9500000000000002 2.2513669746062916 L 1.9500000000000006 3.829289321881345 Z M 3.367126566550276 1.4878372446689303 L 3.829289321881345 1.9499999999999995 L 2.2513669746062916 1.9499999999999997 L 3.367126566550276 1.4878372446689303 Z M 2.5121627553310697 3.367126566550276 L 2.0500000000000003 3.8292893218813453 L 2.05 2.2513669746062916 L 2.5121627553310697 3.367126566550276 Z M 0.6328734334497244 2.5121627553310693 L 0.17071067811865517 2.0500000000000003 L 1.7486330253937084 2.05 L 0.6328734334497244 2.5121627553310693 Z " fill-opacity="0.2" stroke="rgb(200,0,0)" stroke-width="0.01"/></svg>