<svg xmlns="http://www.w3.org/2000/svg" preserveAspectRatio="xMidYMid meet" viewBox="-3.4741015 -4.01 6.948203 8.02"><path fill-rule="evenodd" d="M 3.4641016151377544 2.0 L 0.0 4.0 L -3.4641016151377544 2.0 L -3.4641016151377544 -2.0 L 0.0 -4.0 L 3.4641016151377544 -2.0 L 3.4641016151377544 2.0 Z M 3.3141016151377545 1.9999999999999998 L 2.548237734707183 2.4421717175292015 L 0.4558587016890081 0.34979268451102596 L 3.3141016151377545 1.9999999999999998 Z M 2.4137514138819753 2.5198174310599573 L 1.7595027128527105 2.8975480947161665 L 0.34979268451102613 0.4558587016890082 L 2.4137514138819753 2.5198174310599573 Z M 1.6295989022850446 2.9725480947161667 L 0.9753502012557784 3.350278758372376 L 0.21988887394336015 0.5308587016890078 L 1.6295989022850446 2.9725480947161667 Z M 0.8408638804305707 3.4279244719031325 L 0.07500000000000018 3.8700961894323336 L 0.07500000000000004 0.5696815584543865 L 0.8408638804305707 3.4279244719031325 Z M -0.07499999999999976 3.8700961894323336 L -0.8408638804305708 3.4279244719031325 L -0.07499999999999998 0.5696815584543865 L -0.07499999999999976 3.8700961894323336 Z M -0.9753502012557785 3.3502787583723763 L -1.6295989022850434 2.972548094716167 L -0.2198888739433603 0.5308587016890085 L -0.9753502012557785 3.3502787583723763 Z M -1.7595027128527094 2.897548094716167 L -2.4137514138819753 2.5198174310599577 L -0.34979268451102585 0.45585870168900805 L -1.7595027128527094 2.897548094716167 Z M -2.5482377347071834 2.4421717175292015 L -3.3141016151377545 1.9999999999999998 L -0.45585870168900794 0.34979268451102585 L -2.5482377347071834 2.4421717175292015 Z M -0.6500000000000004 -0.28867513459481264 L -1.0000000000000004 -0.08660254037844373 L -3.389101615137754 -1.4659510009995962 L -3.389101615137754 -1.870096189432334 L -0.6500000000000004 -0.28867513459481264 Z M -2.889101615137754 1.5814210548375207 L -2.889101615137754 1.1772758664047829 L -0.5 -0.20207259421636925 L -0.15000000000000036 -4.440892098500626e-16 L -2.889101615137754 1.5814210548375207 Z M -3.389101615137754 -1.2927459202427078 L -3.0391016151377546 -1.090673326026339 L -3.0391016151377537 1.6680235952159652 L -3.3891016151377533 1.870096189432334 L -3.389101615137754 -1.2927459202427078 Z M -1.1500000000000004 2.220446049250313e-16 L -2.889101615137754 1.0040707856478956 L -2.889101615137754 -1.0040707856478952 L -1.1500000000000004 2.220446049250313e-16 Z M -0.07500000000000046 -0.7072540797572917 L -0.4250000000000005 -0.9093266739736608 L -0.42500000000000027 -3.6680235952159648 L -0.0750000000000004 -3.870096189432334 L -0.07500000000000046 -0.7072540797572917 Z M -2.814101615137754 -1.711324865405187 L -2.4641016151377544 -1.9133974596215557 L -0.07499999999999987 -0.5340489990004039 L -0.0749999999999998 -0.1299038105676663 L -2.814101615137754 -1.711324865405187 Z M -0.5750000000000008 -3.5814210548375205 L -0.5750000000000008 -3.177275866404783 L -2.9641016151377544 -1.7979274057836296 L -3.314101615137754 -1.9999999999999984 L -0.5750000000000008 -3.5814210548375205 Z M -0.5750000000000005 -0.9959292143521046 L -2.314101615137755 -1.9999999999999996 L -0.5750000000000004 -3.004070785647895 L -0.5750000000000005 -0.9959292143521046 Z M 0.5749999999999998 -0.4185789451624792 L 0.575 -0.8227241335952173 L 2.9641016151377535 -2.2020725942163697 L 3.314101615137754 -2.000000000000001 L 0.5749999999999998 -0.4185789451624792 Z M 0.07499999999999973 -3.292745920242708 L 0.4249999999999994 -3.090673326026339 L 0.42500000000000016 -0.3319764047840348 L 0.07500000000000052 -0.1299038105676659 L 0.07499999999999973 -3.292745920242708 Z M 2.814101615137753 -2.2886751345948135 L 2.4641016151377535 -2.0866025403784447 L 0.07499999999999862 -3.4659510009995955 L 0.0749999999999984 -3.870096189432333 L 2.814101615137753 -2.2886751345948135 Z M 0.5749999999999997 -0.995929214352105 L 0.5749999999999991 -3.0040707856478956 L 2.314101615137754 -2.0000000000000004 L 0.5749999999999997 -0.995929214352105 Z M 0.6500000000000004 0.2886751345948124 L 1.0000000000000004 0.0866025403784434 L 3.3891016151377547 1.4659510009995944 L 3.389101615137755 1.870096189432333 L 0.6500000000000004 0.2886751345948124 Z M 2.889101615137754 -1.5814210548375216 L 2.889101615137754 -1.1772758664047842 L 0.5000000000000001 0.2020725942163691 L 0.15000000000000036 3.885780586188048e-16 L 2.889101615137754 -1.5814210548375216 Z M 3.389101615137754 1.2927459202427065 L 3.039101615137755 1.0906733260263377 L 3.0391016151377532 -1.6680235952159665 L 3.389101615137753 -1.8700961894323356 L 3.389101615137754 1.2927459202427065 Z M 1.1500000000000004 -6.661338147750939e-16 L 2.889101615137754 -1.004070785647897 L 2.889101615137755 1.0040707856478943 L 1.1500000000000004 -6.661338147750939e-16 Z " fill-opacity="0.2" stroke="rgb(200,0,0)" stroke-width="0.01"/></svg>