<svg xmlns="http://www.w3.org/2000/svg" preserveAspectRatio="xMidYMid meet" viewBox="3.4541016 -4.01 6.948203 8.02"><path fill-rule="evenodd" d="M 10.392304845413264 2.0 L 6.928203230275509 4.0 L 3.4641016151377544 2.0 L 3.4641016151377544 -2.0 L 6.928203230275509 -4.0 L 10.392304845413264 -2.0 L 10.392304845413264 2.0 Z M 10.292304845413263 1.9999999999999996 L 9.472327848367712 2.4734139399735495 L 7.232109031401514 0.23319512300735065 L 10.292304845413263 1.9999999999999996 Z M 9.382670301150908 2.5251777489940537 L 8.678555308033609 2.9316987298107775 L 7.16139835328286 0.30390580112600557 L 9.382670301150908 2.5251777489940537 Z M 8.591952767655165 2.9816987298107778 L 7.887837774537864 3.388219710627502 L 7.074795812904416 0.3539058011260052 L 8.591952767655165 2.9816987298107778 Z M 7.798180227321059 3.439983519648006 L 6.978203230275509 3.9133974596215557 L 6.978203230275509 0.37978770563625763 L 7.798180227321059 3.439983519648006 Z M 6.878203230275509 3.9133974596215553 L 6.058226233229959 3.4399835196480066 L 6.878203230275509 0.37978770563625763 L 6.878203230275509 3.9133974596215553 Z M 5.968568686013153 3.388219710627503 L 5.264453692895854 2.981698729810778 L 6.781610647646602 0.3539058011260056 L 5.968568686013153 3.388219710627503 Z M 5.177851152517411 2.9316987298107784 L 4.473736159400111 2.5251777489940537 L 6.695008107268158 0.30390580112600535 L 5.177851152517411 2.9316987298107784 Z M 4.384078612183305 2.47341393997355 L 3.564101615137754 1.9999999999999998 L 6.624297429149504 0.23319512300735057 L 4.384078612183305 2.47341393997355 Z M 6.328203230275509 -0.28867513459481264 L 5.928203230275509 -0.05773502691896232 L 3.514101615137754 -1.4515172442698554 L 3.514101615137754 -1.9133974596215566 L 6.328203230275509 -0.28867513459481264 Z M 4.014101615137754 1.6247223250267433 L 4.014101615137754 1.162842109675042 L 6.428203230275509 -0.23094010767585083 L 6.828203230275509 -4.440892098500626e-16 L 4.014101615137754 1.6247223250267433 Z M 3.514101615137754 -1.3360471904319304 L 3.9141016151377546 -1.1051070827560796 L 3.914101615137755 1.682457351945706 L 3.5141016151377547 1.913397459621557 L 3.514101615137754 -1.3360471904319304 Z M 5.828203230275509 2.220446049250313e-16 L 4.014101615137754 1.0473720558371178 L 4.014101615137754 -1.0473720558371173 L 5.828203230275509 2.220446049250313e-16 Z M 6.878203230275509 -0.6639528095680691 L 6.478203230275509 -0.8948929172439201 L 6.478203230275508 -3.682457351945706 L 6.878203230275509 -3.9133974596215566 L 6.878203230275509 -0.6639528095680691 Z M 4.064101615137754 -1.711324865405187 L 4.464101615137755 -1.942264973081037 L 6.878203230275509 -0.5484827557301447 L 6.87820323027551 -0.0866025403784434 L 4.064101615137754 -1.711324865405187 Z M 6.378203230275508 -3.624722325026743 L 6.378203230275508 -3.162842109675042 L 3.9641016151377544 -1.7690598923241483 L 3.564101615137753 -1.9999999999999987 L 6.378203230275508 -3.624722325026743 Z M 6.378203230275508 -0.9526279441628824 L 4.564101615137754 -1.9999999999999996 L 6.378203230275508 -3.0473720558371173 L 6.378203230275508 -0.9526279441628824 Z M 7.478203230275509 -0.37527767497325665 L 7.478203230275509 -0.837157890324958 L 9.892304845413262 -2.2309401076758513 L 10.292304845413263 -2.000000000000001 L 7.478203230275509 -0.37527767497325665 Z M 6.978203230275508 -3.3360471904319304 L 7.378203230275508 -3.1051070827560796 L 7.378203230275509 -0.317542648054294 L 6.978203230275509 -0.08660254037844298 L 6.978203230275508 -3.3360471904319304 Z M 9.792304845413263 -2.2886751345948135 L 9.392304845413262 -2.057735026918963 L 6.978203230275508 -3.451517244269855 L 6.978203230275507 -3.9133974596215566 L 9.792304845413263 -2.2886751345948135 Z M 7.478203230275509 -0.9526279441628829 L 7.478203230275508 -3.0473720558371173 L 9.292304845413263 -2.000000000000001 L 7.478203230275509 -0.9526279441628829 Z M 7.528203230275508 0.2886751345948124 L 7.928203230275509 0.057735026918961874 L 10.342304845413263 1.451517244269854 L 10.342304845413263 1.9133974596215555 L 7.528203230275508 0.2886751345948124 Z M 9.842304845413263 -1.6247223250267442 L 9.842304845413263 -1.1628421096750432 L 7.428203230275509 0.2309401076758507 L 7.028203230275508 4.0245584642661925e-16 L 9.842304845413263 -1.6247223250267442 Z M 10.342304845413263 1.336047190431929 L 9.942304845413263 1.1051070827560785 L 9.942304845413261 -1.6824573519457073 L 10.342304845413263 -1.9133974596215586 L 10.342304845413263 1.336047190431929 Z M 8.028203230275508 -6.661338147750939e-16 L 9.842304845413263 -1.0473720558371187 L 9.842304845413263 1.0473720558371162 L 8.028203230275508 -6.661338147750939e-16 Z " fill-opacity="0.2" stroke="rgb(200,0,0)" stroke-width="0.01"/></svg>