<svg xmlns="http://www.w3.org/2000/svg" preserveAspectRatio="xMidYMid meet" viewBox="-0.41 -0.41 21.60461 24.82"><path fill-rule="evenodd" d="M -0.4 -0.4 L 21.184609690826527 -0.4 L 21.184609690826527 24.4 L -0.4 24.4 L -0.4 -0.4 Z M 3.314 1.999 L 2.548 2.442 L 0.455 0.349 L 3.314 1.999 Z M 2.413 2.519 L 1.759 2.897 L 0.349 0.455 L 2.413 2.519 Z M 1.629 2.972 L 0.975 3.35 L 0.219 0.53 L 1.629 2.972 Z M 0.84 3.427 L 0.1 3.856 L 0.1 0.662 L 0.84 3.427 Z M 3.389 1.465 L 3.389 1.87 L 0.65 0.288 L 0.976 0.1 L 1.024 0.1 L 3.389 1.465 Z M 0.5 0.202 L 0.323 0.1 L 0.677 0.1 L 0.5 0.202 Z M 3.389 1.292 L 3.039 1.09 L 3.039 0.1 L 3.389 0.1 L 3.389 1.292 Z M 2.889 1.004 L 1.323 0.1 L 2.889 0.1 L 2.889 1.004 Z M 10.242 1.999 L 9.476 2.442 L 7.384 0.349 L 10.242 1.999 Z M 9.341 2.519 L 8.687 2.897 L 7.277 0.455 L 9.341 2.519 Z M 8.557 2.972 L 7.903 3.35 L 7.148 0.53 L 8.557 2.972 Z M 7.769 3.427 L 7.003 3.87 L 7.003 0.569 L 7.769 3.427 Z M 6.853 3.87 L 6.087 3.427 L 6.853 0.569 L 6.853 3.87 Z M 5.952 3.35 L 5.298 2.972 L 6.708 0.53 L 5.952 3.35 Z M 5.168 2.897 L 4.514 2.519 L 6.578 0.455 L 5.168 2.897 Z M 4.379 2.442 L 3.614 1.999 L 6.472 0.349 L 4.379 2.442 Z M 4.039 1.581 L 4.039 1.177 L 5.905 0.1 L 6.605 0.1 L 4.039 1.581 Z M 3.889 1.668 L 3.539 1.87 L 3.539 0.1 L 3.889 0.1 L 3.889 1.668 Z M 4.039 1.004 L 4.039 0.1 L 5.605 0.1 L 4.039 1.004 Z M 10.317 1.465 L 10.317 1.87 L 7.578 0.288 L 7.904 0.1 L 7.952 0.1 L 10.317 1.465 Z M 7.428 0.202 L 7.251 0.1 L 7.605 0.1 L 7.428 0.202 Z M 10.317 1.292 L 9.967 1.09 L 9.967 0.1 L 10.317 0.1 L 10.317 1.292 Z M 9.817 1.004 L 8.251 0.1 L 9.817 0.1 L 9.817 1.004 Z M 17.17 1.999 L 16.404 2.442 L 14.312 0.349 L 17.17 1.999 Z M 16.27 2.519 L 15.615 2.897 L 14.206 0.455 L 16.27 2.519 Z M 15.486 2.972 L 14.831 3.35 L 14.076 0.53 L 15.486 2.972 Z M 14.697 3.427 L 13.931 3.87 L 13.931 0.569 L 14.697 3.427 Z M 13.781 3.87 L 13.015 3.427 L 13.781 0.569 L 13.781 3.87 Z M 12.881 3.35 L 12.226 2.972 L 13.636 0.53 L 12.881 3.35 Z M 12.096 2.897 L 11.442 2.519 L 13.506 0.455 L 12.096 2.897 Z M 11.308 2.442 L 10.542 1.999 L 13.4 0.349 L 11.308 2.442 Z M 10.967 1.581 L 10.967 1.177 L 12.833 0.1 L 13.533 0.1 L 10.967 1.581 Z M 10.817 1.668 L 10.467 1.87 L 10.467 0.1 L 10.817 0.1 L 10.817 1.668 Z M 10.967 1.004 L 10.967 0.1 L 12.533 0.1 L 10.967 1.004 Z M 17.245 1.465 L 17.245 1.87 L 14.506 0.288 L 14.832 0.1 L 14.88 0.1 L 17.245 1.465 Z M 14.356 0.202 L 14.179 0.1 L 14.533 0.1 L 14.356 0.202 Z M 17.245 1.292 L 16.895 1.09 L 16.895 0.1 L 17.245 0.1 L 17.245 1.292 Z M 16.745 1.004 L 15.179 0.1 L 16.745 0.1 L 16.745 1.004 Z M 20.684 3.856 L 19.943 3.427 L 20.684 0.662 L 20.684 3.856 Z M 19.809 3.35 L 19.155 2.972 L 20.564 0.53 L 19.809 3.35 Z M 19.025 2.897 L 18.37 2.519 L 20.434 0.455 L 19.025 2.897 Z M 18.236 2.442 L 17.47 1.999 L 20.328 0.349 L 18.236 2.442 Z M 17.895 1.581 L 17.895 1.177 L 19.761 0.1 L 20.461 0.1 L 17.895 1.581 Z M 17.745 1.668 L 17.395 1.87 L 17.395 0.1 L 17.745 0.1 L 17.745 1.668 Z M 17.895 1.004 L 17.895 0.1 L 19.461 0.1 L 17.895 1.004 Z M 6.778 8.0 L 6.012 8.442 L 3.919 6.349 L 6.778 8.0 Z M 5.877 8.519 L 5.223 8.897 L 3.813 6.455 L 5.877 8.519 Z M 5.093 8.972 L 4.439 9.35 L 3.683 6.53 L 5.093 8.972 Z M 4.304 9.427 L 3.539 9.87 L 3.539 6.569 L 4.304 9.427 Z M 3.389 9.87 L 2.623 9.427 L 3.389 6.569 L 3.389 9.87 Z M 2.488 9.35 L 1.834 8.972 L 3.244 6.53 L 2.488 9.35 Z M 1.704 8.897 L 1.05 8.519 L 3.114 6.455 L 1.704 8.897 Z M 0.915 8.442 L 0.149 8.0 L 3.008 6.349 L 0.915 8.442 Z M 2.814 5.711 L 2.464 5.913 L 0.1 4.548 L 0.1 4.143 L 2.814 5.711 Z M 3.314 6.0 L 0.575 7.581 L 0.575 7.177 L 2.964 5.797 L 3.314 6.0 Z M 0.424 4.909 L 0.425 7.668 L 0.1 7.856 L 0.1 4.721 L 0.424 4.909 Z M 2.314 6.0 L 0.575 7.004 L 0.575 4.995 L 2.314 6.0 Z M 3.389 5.292 L 3.039 5.09 L 3.039 2.331 L 3.389 2.129 L 3.389 5.292 Z M 3.389 5.465 L 3.389 5.87 L 0.65 4.288 L 1.0 4.086 L 3.389 5.465 Z M 2.889 2.822 L 0.5 4.202 L 0.15 4.0 L 2.889 2.418 L 2.889 2.822 Z M 2.889 5.004 L 1.149 4.0 L 2.889 2.995 L 2.889 5.004 Z M 6.778 3.999 L 4.039 5.581 L 4.039 5.177 L 6.428 3.797 L 6.778 3.999 Z M 3.889 2.909 L 3.889 5.668 L 3.539 5.87 L 3.539 2.707 L 3.889 2.909 Z M 6.278 3.711 L 5.928 3.913 L 3.539 2.534 L 3.539 2.129 L 6.278 3.711 Z M 5.778 3.999 L 4.039 5.004 L 4.039 2.995 L 5.778 3.999 Z M 6.853 7.465 L 6.853 7.87 L 4.114 6.288 L 4.464 6.086 L 6.853 7.465 Z M 6.353 4.822 L 3.964 6.202 L 3.614 6.0 L 6.353 4.418 L 6.353 4.822 Z M 6.853 7.292 L 6.503 7.09 L 6.503 4.331 L 6.853 4.129 L 6.853 7.292 Z M 6.353 7.004 L 4.614 5.999 L 6.353 4.995 L 6.353 7.004 Z M 13.706 8.0 L 12.94 8.442 L 10.848 6.349 L 13.706 8.0 Z M 12.806 8.519 L 12.151 8.897 L 10.742 6.455 L 12.806 8.519 Z M 12.021 8.972 L 11.367 9.35 L 10.612 6.53 L 12.021 8.972 Z M 11.233 9.427 L 10.467 9.87 L 10.467 6.569 L 11.233 9.427 Z M 10.317 9.87 L 9.551 9.427 L 10.317 6.569 L 10.317 9.87 Z M 9.416 9.35 L 8.762 8.972 L 10.172 6.53 L 9.416 9.35 Z M 8.632 8.897 L 7.978 8.519 L 10.042 6.455 L 8.632 8.897 Z M 7.844 8.442 L 7.078 8.0 L 9.936 6.349 L 7.844 8.442 Z M 9.742 5.711 L 9.392 5.913 L 7.003 4.534 L 7.003 4.129 L 9.742 5.711 Z M 10.242 6.0 L 7.503 7.581 L 7.503 7.177 L 9.892 5.797 L 10.242 6.0 Z M 7.353 4.909 L 7.353 7.668 L 7.003 7.87 L 7.003 4.707 L 7.353 4.909 Z M 9.242 6.0 L 7.503 7.004 L 7.503 4.995 L 9.242 6.0 Z M 10.317 5.292 L 9.967 5.09 L 9.967 2.331 L 10.317 2.129 L 10.317 5.292 Z M 10.317 5.465 L 10.317 5.87 L 7.578 4.288 L 7.928 4.086 L 10.317 5.465 Z M 9.817 2.822 L 7.428 4.202 L 7.078 4.0 L 9.817 2.418 L 9.817 2.822 Z M 9.817 5.004 L 8.078 4.0 L 9.817 2.995 L 9.817 5.004 Z M 13.706 3.999 L 10.967 5.581 L 10.967 5.177 L 13.356 3.797 L 13.706 3.999 Z M 10.817 2.909 L 10.817 5.668 L 10.467 5.87 L 10.467 2.707 L 10.817 2.909 Z M 13.206 3.711 L 12.856 3.913 L 10.467 2.534 L 10.467 2.129 L 13.206 3.711 Z M 12.706 3.999 L 10.967 5.004 L 10.967 2.995 L 12.706 3.999 Z M 13.781 7.465 L 13.781 7.87 L 11.042 6.288 L 11.392 6.086 L 13.781 7.465 Z M 13.281 4.822 L 10.892 6.202 L 10.542 6.0 L 13.281 4.418 L 13.281 4.822 Z M 13.781 7.292 L 13.431 7.09 L 13.431 4.331 L 13.781 4.129 L 13.781 7.292 Z M 13.281 7.004 L 11.542 5.999 L 13.281 4.995 L 13.281 7.004 Z M 20.634 8.0 L 19.868 8.442 L 17.776 6.349 L 20.634 8.0 Z M 19.734 8.519 L 19.08 8.897 L 17.67 6.455 L 19.734 8.519 Z M 18.95 8.972 L 18.295 9.35 L 17.54 6.53 L 18.95 8.972 Z M 18.161 9.427 L 17.395 9.87 L 17.395 6.569 L 18.161 9.427 Z M 17.245 9.87 L 16.479 9.427 L 17.245 6.569 L 17.245 9.87 Z M 16.345 9.35 L 15.69 8.972 L 17.1 6.53 L 16.345 9.35 Z M 15.561 8.897 L 14.906 8.519 L 16.97 6.455 L 15.561 8.897 Z M 14.772 8.442 L 14.006 8.0 L 16.864 6.349 L 14.772 8.442 Z M 16.67 5.711 L 16.32 5.913 L 13.931 4.534 L 13.931 4.129 L 16.67 5.711 Z M 17.17 6.0 L 14.431 7.581 L 14.431 7.177 L 16.82 5.797 L 17.17 6.0 Z M 14.281 4.909 L 14.281 7.668 L 13.931 7.87 L 13.931 4.707 L 14.281 4.909 Z M 16.17 6.0 L 14.431 7.004 L 14.431 4.995 L 16.17 6.0 Z M 17.245 5.292 L 16.895 5.09 L 16.895 2.331 L 17.245 2.129 L 17.245 5.292 Z M 17.245 5.465 L 17.245 5.87 L 14.506 4.288 L 14.856 4.086 L 17.245 5.465 Z M 16.745 2.822 L 14.356 4.202 L 14.006 4.0 L 16.745 2.418 L 16.745 2.822 Z M 16.745 5.004 L 15.006 4.0 L 16.745 2.995 L 16.745 5.004 Z M 20.634 3.999 L 17.895 5.581 L 17.895 5.177 L 20.284 3.797 L 20.634 3.999 Z M 17.745 2.909 L 17.745 5.668 L 17.395 5.87 L 17.395 2.707 L 17.745 2.909 Z M 20.134 3.711 L 19.784 3.913 L 17.395 2.534 L 17.395 2.129 L 20.134 3.711 Z M 19.634 3.999 L 17.895 5.004 L 17.895 2.995 L 19.634 3.999 Z M 20.684 7.451 L 20.684 7.856 L 17.97 6.288 L 18.32 6.086 L 20.684 7.451 Z M 20.209 4.822 L 17.82 6.202 L 17.47 6.0 L 20.209 4.418 L 20.209 4.822 Z M 20.684 7.278 L 20.359 7.09 L 20.359 4.331 L 20.684 4.143 L 20.684 7.278 Z M 20.209 7.004 L 18.47 5.999 L 20.209 4.995 L 20.209 7.004 Z M 3.314 14.0 L 2.548 14.442 L 0.455 12.349 L 3.314 14.0 Z M 2.413 14.519 L 1.759 14.897 L 0.349 12.455 L 2.413 14.519 Z M 1.629 14.972 L 0.975 15.35 L 0.219 12.53 L 1.629 14.972 Z M 0.84 15.427 L 0.1 15.856 L 0.1 12.662 L 0.84 15.427 Z M 3.314 10.0 L 0.574 11.581 L 0.575 11.177 L 2.964 9.797 L 3.314 10.0 Z M 0.424 8.909 L 0.425 11.668 L 0.1 11.856 L 0.1 8.722 L 0.424 8.909 Z M 2.814 9.711 L 2.464 9.913 L 0.1 8.549 L 0.1 8.144 L 2.814 9.711 Z M 2.314 10.0 L 0.574 11.004 L 0.574 8.995 L 2.314 10.0 Z M 3.389 13.465 L 3.389 13.87 L 0.65 12.288 L 1.0 12.086 L 3.389 13.465 Z M 2.889 10.822 L 0.5 12.202 L 0.15 12.0 L 2.889 10.418 L 2.889 10.822 Z M 3.389 13.292 L 3.039 13.09 L 3.039 10.331 L 3.389 10.129 L 3.389 13.292 Z M 2.889 13.004 L 1.15 12.0 L 2.889 10.995 L 2.889 13.004 Z M 10.242 14.0 L 9.476 14.442 L 7.384 12.349 L 10.242 14.0 Z M 9.341 14.519 L 8.687 14.897 L 7.277 12.455 L 9.341 14.519 Z M 8.557 14.972 L 7.903 15.35 L 7.148 12.53 L 8.557 14.972 Z M 7.769 15.427 L 7.003 15.87 L 7.003 12.569 L 7.769 15.427 Z M 6.853 15.87 L 6.087 15.427 L 6.853 12.569 L 6.853 15.87 Z M 5.952 15.35 L 5.298 14.972 L 6.708 12.53 L 5.952 15.35 Z M 5.168 14.897 L 4.514 14.519 L 6.578 12.455 L 5.168 14.897 Z M 4.379 14.442 L 3.614 14.0 L 6.472 12.349 L 4.379 14.442 Z M 6.278 11.711 L 5.928 11.913 L 3.539 10.534 L 3.539 10.129 L 6.278 11.711 Z M 6.778 12.0 L 4.039 13.581 L 4.039 13.177 L 6.428 11.797 L 6.778 12.0 Z M 3.889 10.909 L 3.889 13.668 L 3.539 13.87 L 3.539 10.707 L 3.889 10.909 Z M 5.778 12.0 L 4.039 13.004 L 4.039 10.995 L 5.778 12.0 Z M 6.853 11.292 L 6.503 11.09 L 6.503 8.331 L 6.853 8.129 L 6.853 11.292 Z M 6.853 11.465 L 6.853 11.87 L 4.114 10.288 L 4.464 10.086 L 6.853 11.465 Z M 6.353 8.822 L 3.964 10.202 L 3.614 10.0 L 6.353 8.418 L 6.353 8.822 Z M 6.353 11.004 L 4.614 10.0 L 6.353 8.995 L 6.353 11.004 Z M 10.242 10.0 L 7.503 11.581 L 7.503 11.177 L 9.892 9.797 L 10.242 10.0 Z M 7.353 8.909 L 7.353 11.668 L 7.003 11.87 L 7.003 8.707 L 7.353 8.909 Z M 9.742 9.711 L 9.392 9.913 L 7.003 8.534 L 7.003 8.129 L 9.742 9.711 Z M 9.242 10.0 L 7.503 11.004 L 7.503 8.995 L 9.242 10.0 Z M 10.317 13.465 L 10.317 13.87 L 7.578 12.288 L 7.928 12.086 L 10.317 13.465 Z M 9.817 10.822 L 7.428 12.202 L 7.078 12.0 L 9.817 10.418 L 9.817 10.822 Z M 10.317 13.292 L 9.967 13.09 L 9.967 10.331 L 10.317 10.129 L 10.317 13.292 Z M 9.817 13.004 L 8.078 12.0 L 9.817 10.995 L 9.817 13.004 Z M 17.17 14.0 L 16.404 14.442 L 14.312 12.349 L 17.17 14.0 Z M 16.27 14.519 L 15.615 14.897 L 14.206 12.455 L 16.27 14.519 Z M 15.486 14.972 L 14.831 15.35 L 14.076 12.53 L 15.486 14.972 Z M 14.697 15.427 L 13.931 15.87 L 13.931 12.569 L 14.697 15.427 Z M 13.781 15.87 L 13.015 15.427 L 13.781 12.569 L 13.781 15.87 Z M 12.881 15.35 L 12.226 14.972 L 13.636 12.53 L 12.881 15.35 Z M 12.096 14.897 L 11.442 14.519 L 13.506 12.455 L 12.096 14.897 Z M 11.308 14.442 L 10.542 14.0 L 13.4 12.349 L 11.308 14.442 Z M 13.206 11.711 L 12.856 11.913 L 10.467 10.534 L 10.467 10.129 L 13.206 11.711 Z M 13.706 12.0 L 10.967 13.581 L 10.967 13.177 L 13.356 11.797 L 13.706 12.0 Z M 10.817 10.909 L 10.817 13.668 L 10.467 13.87 L 10.467 10.707 L 10.817 10.909 Z M 12.706 12.0 L 10.967 13.004 L 10.967 10.995 L 12.706 12.0 Z M 13.781 11.292 L 13.431 11.09 L 13.431 8.331 L 13.781 8.129 L 13.781 11.292 Z M 13.781 11.465 L 13.781 11.87 L 11.042 10.288 L 11.392 10.086 L 13.781 11.465 Z M 13.281 8.822 L 10.892 10.202 L 10.542 10.0 L 13.281 8.418 L 13.281 8.822 Z M 13.281 11.004 L 11.542 10.0 L 13.281 8.995 L 13.281 11.004 Z M 17.17 10.0 L 14.431 11.581 L 14.431 11.177 L 16.82 9.797 L 17.17 10.0 Z M 14.281 8.909 L 14.281 11.668 L 13.931 11.87 L 13.931 8.707 L 14.281 8.909 Z M 16.67 9.711 L 16.32 9.913 L 13.931 8.534 L 13.931 8.129 L 16.67 9.711 Z M 16.17 10.0 L 14.431 11.004 L 14.431 8.995 L 16.17 10.0 Z M 17.245 13.465 L 17.245 13.87 L 14.506 12.288 L 14.856 12.086 L 17.245 13.465 Z M 16.745 10.822 L 14.356 12.202 L 14.006 12.0 L 16.745 10.418 L 16.745 10.822 Z M 17.245 13.292 L 16.895 13.09 L 16.895 10.331 L 17.245 10.129 L 17.245 13.292 Z M 16.745 13.004 L 15.006 12.0 L 16.745 10.995 L 16.745 13.004 Z M 20.684 15.856 L 19.943 15.427 L 20.684 12.662 L 20.684 15.856 Z M 19.809 15.35 L 19.155 14.972 L 20.564 12.53 L 19.809 15.35 Z M 19.025 14.897 L 18.37 14.519 L 20.434 12.455 L 19.025 14.897 Z M 18.236 14.442 L 17.47 14.0 L 20.328 12.349 L 18.236 14.442 Z M 20.134 11.711 L 19.784 11.913 L 17.395 10.534 L 17.395 10.129 L 20.134 11.711 Z M 20.634 12.0 L 17.895 13.581 L 17.895 13.177 L 20.284 11.797 L 20.634 12.0 Z M 17.745 10.909 L 17.745 13.668 L 17.395 13.87 L 17.395 10.707 L 17.745 10.909 Z M 19.634 12.0 L 17.895 13.004 L 17.895 10.995 L 19.634 12.0 Z M 20.684 11.278 L 20.359 11.09 L 20.359 8.331 L 20.684 8.143 L 20.684 11.278 Z M 20.684 11.451 L 20.684 11.856 L 17.97 10.288 L 18.32 10.086 L 20.684 11.451 Z M 20.209 8.822 L 17.82 10.202 L 17.47 10.0 L 20.209 8.418 L 20.209 8.822 Z M 20.209 11.004 L 18.47 10.0 L 20.209 8.995 L 20.209 11.004 Z M 6.778 20.0 L 6.012 20.442 L 3.919 18.349 L 6.778 20.0 Z M 5.877 20.519 L 5.223 20.897 L 3.813 18.455 L 5.877 20.519 Z M 5.093 20.972 L 4.439 21.35 L 3.683 18.53 L 5.093 20.972 Z M 4.304 21.427 L 3.539 21.87 L 3.539 18.569 L 4.304 21.427 Z M 3.389 21.87 L 2.623 21.427 L 3.389 18.569 L 3.389 21.87 Z M 2.488 21.35 L 1.834 20.972 L 3.244 18.53 L 2.488 21.35 Z M 1.704 20.897 L 1.05 20.519 L 3.114 18.455 L 1.704 20.897 Z M 0.915 20.442 L 0.149 20.0 L 3.008 18.349 L 0.915 20.442 Z M 2.814 17.711 L 2.464 17.913 L 0.1 16.548 L 0.1 16.143 L 2.814 17.711 Z M 3.314 18.0 L 0.575 19.581 L 0.575 19.177 L 2.964 17.797 L 3.314 18.0 Z M 0.424 16.909 L 0.425 19.668 L 0.1 19.856 L 0.1 16.721 L 0.424 16.909 Z M 2.314 18.0 L 0.575 19.004 L 0.575 16.995 L 2.314 18.0 Z M 3.389 17.292 L 3.039 17.09 L 3.039 14.331 L 3.389 14.129 L 3.389 17.292 Z M 3.389 17.465 L 3.389 17.87 L 0.65 16.288 L 1.0 16.086 L 3.389 17.465 Z M 2.889 14.822 L 0.5 16.202 L 0.15 16.0 L 2.889 14.418 L 2.889 14.822 Z M 2.889 17.004 L 1.149 16.0 L 2.889 14.995 L 2.889 17.004 Z M 6.778 16.0 L 4.039 17.581 L 4.039 17.177 L 6.428 15.797 L 6.778 16.0 Z M 3.889 14.909 L 3.889 17.668 L 3.539 17.87 L 3.539 14.707 L 3.889 14.909 Z M 6.278 15.711 L 5.928 15.913 L 3.539 14.534 L 3.539 14.129 L 6.278 15.711 Z M 5.778 16.0 L 4.039 17.004 L 4.039 14.995 L 5.778 16.0 Z M 6.853 19.465 L 6.853 19.87 L 4.114 18.288 L 4.464 18.086 L 6.853 19.465 Z M 6.353 16.822 L 3.964 18.202 L 3.614 18.0 L 6.353 16.418 L 6.353 16.822 Z M 6.853 19.292 L 6.503 19.09 L 6.503 16.331 L 6.853 16.129 L 6.853 19.292 Z M 6.353 19.004 L 4.614 18.0 L 6.353 16.995 L 6.353 19.004 Z M 13.706 20.0 L 12.94 20.442 L 10.848 18.349 L 13.706 20.0 Z M 12.806 20.519 L 12.151 20.897 L 10.742 18.455 L 12.806 20.519 Z M 12.021 20.972 L 11.367 21.35 L 10.612 18.53 L 12.021 20.972 Z M 11.233 21.427 L 10.467 21.87 L 10.467 18.569 L 11.233 21.427 Z M 10.317 21.87 L 9.551 21.427 L 10.317 18.569 L 10.317 21.87 Z M 9.416 21.35 L 8.762 20.972 L 10.172 18.53 L 9.416 21.35 Z M 8.632 20.897 L 7.978 20.519 L 10.042 18.455 L 8.632 20.897 Z M 7.844 20.442 L 7.078 20.0 L 9.936 18.349 L 7.844 20.442 Z M 9.742 17.711 L 9.392 17.913 L 7.003 16.534 L 7.003 16.129 L 9.742 17.711 Z M 10.242 18.0 L 7.503 19.581 L 7.503 19.177 L 9.892 17.797 L 10.242 18.0 Z M 7.353 16.909 L 7.353 19.668 L 7.003 19.87 L 7.003 16.707 L 7.353 16.909 Z M 9.242 18.0 L 7.503 19.004 L 7.503 16.995 L 9.242 18.0 Z M 10.317 17.292 L 9.967 17.09 L 9.967 14.331 L 10.317 14.129 L 10.317 17.292 Z M 10.317 17.465 L 10.317 17.87 L 7.578 16.288 L 7.928 16.086 L 10.317 17.465 Z M 9.817 14.822 L 7.428 16.202 L 7.078 16.0 L 9.817 14.418 L 9.817 14.822 Z M 9.817 17.004 L 8.078 16.0 L 9.817 14.995 L 9.817 17.004 Z M 13.706 16.0 L 10.967 17.581 L 10.967 17.177 L 13.356 15.797 L 13.706 16.0 Z M 10.817 14.909 L 10.817 17.668 L 10.467 17.87 L 10.467 14.707 L 10.817 14.909 Z M 13.206 15.711 L 12.856 15.913 L 10.467 14.534 L 10.467 14.129 L 13.206 15.711 Z M 12.706 16.0 L 10.967 17.004 L 10.967 14.995 L 12.706 16.0 Z M 13.781 19.465 L 13.781 19.87 L 11.042 18.288 L 11.392 18.086 L 13.781 19.465 Z M 13.281 16.822 L 10.892 18.202 L 10.542 18.0 L 13.281 16.418 L 13.281 16.822 Z M 13.781 19.292 L 13.431 19.09 L 13.431 16.331 L 13.781 16.129 L 13.781 19.292 Z M 13.281 19.004 L 11.542 18.0 L 13.281 16.995 L 13.281 19.004 Z M 20.634 20.0 L 19.868 20.442 L 17.776 18.349 L 20.634 20.0 Z M 19.734 20.519 L 19.08 20.897 L 17.67 18.455 L 19.734 20.519 Z M 18.95 20.972 L 18.295 21.35 L 17.54 18.53 L 18.95 20.972 Z M 18.161 21.427 L 17.395 21.87 L 17.395 18.569 L 18.161 21.427 Z M 17.245 21.87 L 16.479 21.427 L 17.245 18.569 L 17.245 21.87 Z M 16.345 21.35 L 15.69 20.972 L 17.1 18.53 L 16.345 21.35 Z M 15.561 20.897 L 14.906 20.519 L 16.97 18.455 L 15.561 20.897 Z M 14.772 20.442 L 14.006 20.0 L 16.864 18.349 L 14.772 20.442 Z M 16.67 17.711 L 16.32 17.913 L 13.931 16.534 L 13.931 16.129 L 16.67 17.711 Z M 17.17 18.0 L 14.431 19.581 L 14.431 19.177 L 16.82 17.797 L 17.17 18.0 Z M 14.281 16.909 L 14.281 19.668 L 13.931 19.87 L 13.931 16.707 L 14.281 16.909 Z M 16.17 18.0 L 14.431 19.004 L 14.431 16.995 L 16.17 18.0 Z M 17.245 17.292 L 16.895 17.09 L 16.895 14.331 L 17.245 14.129 L 17.245 17.292 Z M 17.245 17.465 L 17.245 17.87 L 14.506 16.288 L 14.856 16.086 L 17.245 17.465 Z M 16.745 14.822 L 14.356 16.202 L 14.006 16.0 L 16.745 14.418 L 16.745 14.822 Z M 16.745 17.004 L 15.006 16.0 L 16.745 14.995 L 16.745 17.004 Z M 20.634 16.0 L 17.895 17.581 L 17.895 17.177 L 20.284 15.797 L 20.634 16.0 Z M 17.745 14.909 L 17.745 17.668 L 17.395 17.87 L 17.395 14.707 L 17.745 14.909 Z M 20.134 15.711 L 19.784 15.913 L 17.395 14.534 L 17.395 14.129 L 20.134 15.711 Z M 19.634 16.0 L 17.895 17.004 L 17.895 14.995 L 19.634 16.0 Z M 20.684 19.451 L 20.684 19.856 L 17.97 18.288 L 18.32 18.086 L 20.684 19.451 Z M 20.209 16.822 L 17.82 18.202 L 17.47 18.0 L 20.209 16.418 L 20.209 16.822 Z M 20.684 19.278 L 20.359 19.09 L 20.359 16.331 L 20.684 16.143 L 20.684 19.278 Z M 20.209 19.004 L 18.47 18.0 L 20.209 16.995 L 20.209 19.004 Z M 3.314 22.0 L 0.574 23.581 L 0.575 23.177 L 2.964 21.797 L 3.314 22.0 Z M 0.424 20.909 L 0.425 23.668 L 0.1 23.856 L 0.1 20.722 L 0.424 20.909 Z M 2.814 21.711 L 2.464 21.913 L 0.1 20.549 L 0.1 20.144 L 2.814 21.711 Z M 2.314 22.0 L 0.574 23.004 L 0.574 20.995 L 2.314 22.0 Z M 2.889 22.822 L 1.023 23.9 L 0.323 23.9 L 2.889 22.418 L 2.889 22.822 Z M 3.389 23.9 L 3.039 23.9 L 3.039 22.331 L 3.389 22.129 L 3.389 23.9 Z M 2.889 23.9 L 1.323 23.9 L 2.889 22.995 L 2.889 23.9 Z M 6.278 23.711 L 5.951 23.9 L 5.905 23.9 L 3.539 22.534 L 3.539 22.129 L 6.278 23.711 Z M 6.606 23.9 L 6.25 23.9 L 6.428 23.797 L 6.606 23.9 Z M 3.889 22.909 L 3.889 23.9 L 3.539 23.9 L 3.539 22.707 L 3.889 22.909 Z M 5.605 23.9 L 4.039 23.9 L 4.039 22.995 L 5.605 23.9 Z M 6.853 23.292 L 6.503 23.09 L 6.503 20.331 L 6.853 20.129 L 6.853 23.292 Z M 6.853 23.465 L 6.853 23.87 L 4.114 22.288 L 4.464 22.086 L 6.853 23.465 Z M 6.353 20.822 L 3.964 22.202 L 3.614 22.0 L 6.353 20.418 L 6.353 20.822 Z M 6.353 23.004 L 4.614 22.0 L 6.353 20.995 L 6.353 23.004 Z M 10.242 22.0 L 7.503 23.581 L 7.503 23.177 L 9.892 21.797 L 10.242 22.0 Z M 7.353 20.909 L 7.353 23.668 L 7.003 23.87 L 7.003 20.707 L 7.353 20.909 Z M 9.742 21.711 L 9.392 21.913 L 7.003 20.534 L 7.003 20.129 L 9.742 21.711 Z M 9.242 22.0 L 7.503 23.004 L 7.503 20.995 L 9.242 22.0 Z M 9.817 22.822 L 7.951 23.9 L 7.251 23.9 L 9.817 22.418 L 9.817 22.822 Z M 10.317 23.9 L 9.967 23.9 L 9.967 22.331 L 10.317 22.129 L 10.317 23.9 Z M 9.817 23.9 L 8.251 23.9 L 9.817 22.995 L 9.817 23.9 Z M 13.206 23.711 L 12.879 23.9 L 12.833 23.9 L 10.467 22.534 L 10.467 22.129 L 13.206 23.711 Z M 13.534 23.9 L 13.178 23.9 L 13.356 23.797 L 13.534 23.9 Z M 10.817 22.909 L 10.817 23.9 L 10.467 23.9 L 10.467 22.707 L 10.817 22.909 Z M 12.533 23.9 L 10.967 23.9 L 10.967 22.995 L 12.533 23.9 Z M 13.781 23.292 L 13.431 23.09 L 13.431 20.331 L 13.781 20.129 L 13.781 23.292 Z M 13.781 23.465 L 13.781 23.87 L 11.042 22.288 L 11.392 22.086 L 13.781 23.465 Z M 13.281 20.822 L 10.892 22.202 L 10.542 22.0 L 13.281 20.418 L 13.281 20.822 Z M 13.281 23.004 L 11.542 22.0 L 13.281 20.995 L 13.281 23.004 Z M 17.17 22.0 L 14.431 23.581 L 14.431 23.177 L 16.82 21.797 L 17.17 22.0 Z M 14.281 20.909 L 14.281 23.668 L 13.931 23.87 L 13.931 20.707 L 14.281 20.909 Z M 16.67 21.711 L 16.32 21.913 L 13.931 20.534 L 13.931 20.129 L 16.67 21.711 Z M 16.17 22.0 L 14.431 23.004 L 14.431 20.995 L 16.17 22.0 Z M 16.745 22.822 L 14.879 23.9 L 14.179 23.9 L 16.745 22.418 L 16.745 22.822 Z M 17.245 23.9 L 16.895 23.9 L 16.895 22.331 L 17.245 22.129 L 17.245 23.9 Z M 16.745 23.9 L 15.179 23.9 L 16.745 22.995 L 16.745 23.9 Z M 20.134 23.711 L 19.807 23.9 L 19.761 23.9 L 17.395 22.534 L 17.395 22.129 L 20.134 23.711 Z M 20.462 23.9 L 20.106 23.9 L 20.284 23.797 L 20.462 23.9 Z M 17.745 22.909 L 17.745 23.9 L 17.395 23.9 L 17.395 22.707 L 17.745 22.909 Z M 19.461 23.9 L 17.895 23.9 L 17.895 22.995 L 19.461 23.9 Z M 20.684 23.278 L 20.359 23.09 L 20.359 20.331 L 20.684 20.143 L 20.684 23.278 Z M 20.684 23.451 L 20.684 23.856 L 17.97 22.288 L 18.32 22.086 L 20.684 23.451 Z M 20.209 20.822 L 17.82 22.202 L 17.47 22.0 L 20.209 20.418 L 20.209 20.822 Z M 20.209 23.004 L 18.47 22.0 L 20.209 20.995 L 20.209 23.004 Z " fill-opacity="0.2" stroke="rgb(200,0,0)" stroke-width="0.01"/></svg>