<svg xmlns="http://www.w3.org/2000/svg" preserveAspectRatio="xMidYMid meet" viewBox="-0.005 -0.005 10.01 10.01"><path d="M 0.0 0.0 L 10.0 0.0" stroke="rgb(255,0,0)" stroke-width="0.005"/><path d="M 0.0 0.0 L 0.0 10.0" stroke="rgb(255,0,0)" stroke-width="0.005"/><path d="M 0.0 1.0 L 10.0 1.0" stroke="rgb(255,0,0)" stroke-width="0.005"/><path d="M 1.0 0.0 L 1.0 10.0" stroke="rgb(255,0,0)" stroke-width="0.005"/><path d="M 0.0 2.0 L 10.0 2.0" stroke="rgb(255,0,0)" stroke-width="0.005"/><path d="M 2.0 0.0 L 2.0 10.0" stroke="rgb(255,0,0)" stroke-width="0.005"/><path d="M 0.0 3.0 L 10.0 3.0" stroke="rgb(255,0,0)" stroke-width="0.005"/><path d="M 3.0 0.0 L 3.0 10.0" stroke="rgb(255,0,0)" stroke-width="0.005"/><path d="M 0.0 4.0 L 10.0 4.0" stroke="rgb(255,0,0)" stroke-width="0.005"/><path d="M 4.0 0.0 L 4.0 10.0" stroke="rgb(255,0,0)" stroke-width="0.005"/><path d="M 0.0 5.0 L 10.0 5.0" stroke="rgb(255,0,0)" stroke-width="0.005"/><path d="M 5.0 0.0 L 5.0 10.0" stroke="rgb(255,0,0)" stroke-width="0.005"/><path d="M 0.0 6.0 L 10.0 6.0" stroke="rgb(255,0,0)" stroke-width="0.005"/><path d="M 6.0 0.0 L 6.0 10.0" stroke="rgb(255,0,0)" stroke-width="0.005"/><path d="M 0.0 7.0 L 10.0 7.0" stroke="rgb(255,0,0)" stroke-width="0.005"/><path d="M 7.0 0.0 L 7.0 10.0" stroke="rgb(255,0,0)" stroke-width="0.005"/><path d="M 0.0 8.0 L 10.0 8.0" stroke="rgb(255,0,0)" stroke-width="0.005"/><path d="M 8.0 0.0 L 8.0 10.0" stroke="rgb(255,0,0)" stroke-width="0.005"/><path d="M 0.0 9.0 L 10.0 9.0" stroke="rgb(255,0,0)" stroke-width="0.005"/><path d="M 9.0 0.0 L 9.0 10.0" stroke="rgb(255,0,0)" stroke-width="0.005"/><path d="M 0.0 10.0 L 10.0 10.0" stroke="rgb(255,0,0)" stroke-width="0.005"/><path d="M 10.0 0.0 L 10.0 10.0" stroke="rgb(255,0,0)" stroke-width="0.005"/><path fill-rule="evenodd" d="M 1.0 1.0 L 7.0 1.0 L 4.0 6.0 L 1.0 1.0 Z M 2.0 1.5 L 6.0 1.5 L 4.0 5.0 L 2.0 1.5 Z " fill-opacity="0.2" stroke="rgb(0,100,200)" stroke-width="0.01"/><path d="M 3.0 3.25 L 3.0 4.333333333333333" fill-opacity="0.2" stroke="rgb(0,0,200)" stroke-width="0.1"/><path d="M 5.714285714285714 2.0 L 6.4 2.0" fill-opacity="0.2" stroke="rgb(0,0,200)" stroke-width="0.1"/><path d="M 3.0 4.333333333333333 L 4.0 6.0" fill-opacity="0.2" stroke="rgb(0,0,200)" stroke-width="0.1"/><path d="M 4.0 6.0 L 6.4 2.0" fill-opacity="0.2" stroke="rgb(0,0,200)" stroke-width="0.1"/><path d="M 3.0 3.25 L 4.0 5.0" fill-opacity="0.2" stroke="rgb(0,0,200)" stroke-width="0.1"/><path d="M 4.0 5.0 L 5.714285714285714 2.0" fill-opacity="0.2" stroke="rgb(0,0,200)" stroke-width="0.1"/></svg>