<svg xmlns="http://www.w3.org/2000/svg" preserveAspectRatio="xMidYMid meet" viewBox="-0.385 -0.09660254 3.9591017 4.1932054"><path fill-rule="evenodd" d="M 3.5641016151377545 2.0 L -0.050000000000000266 4.086602540378444 L -0.05 -0.0866025403784434 L 3.5641016151377545 2.0 Z M 2.564101615137754 1.538119784648299 L 1.8641016151377539 1.9422649730810373 L 0.04999999999999999 0.8948929172439202 L 0.05 0.08660254037844428 L 2.564101615137754 1.538119784648299 Z M 0.850000000000001 3.4515172442698554 L 0.8500000000000005 2.643226867404379 L 2.664101615137754 1.5958548115672615 L 3.364101615137754 1.9999999999999993 L 0.850000000000001 3.4515172442698554 Z M 0.04999999999999938 1.0103629710818463 L 0.75 1.4145081595145843 L 0.7500000000000009 3.509252271188818 L 0.0500000000000016 3.913397459621556 L 0.04999999999999938 1.0103629710818463 Z M 1.7641016151377542 2.0 L 0.8500000000000001 2.527756813566454 L 0.8500000000000001 1.4722431864335461 L 1.7641016151377542 2.0 Z " fill-opacity="0.2" stroke="rgb(200,0,0)" stroke-width="0.01"/><path d="M -0.3750000000000001 0.6495190528383291 L 0.4910254037844386 1.1495190528383292" stroke="rgb(100,0,200)" stroke-width="0.01"/><path d="M 3.089101615137754 1.3504809471616708 L 2.223076211353315 1.850480947161671" stroke="rgb(100,0,200)" stroke-width="0.01"/><path d="M 0.75 4.0 L 0.75 3.0" stroke="rgb(100,0,200)" stroke-width="0.01"/><circle cx="0.0" cy="0.0" r="0.02" fill-opacity="0.2" stroke="rgb(100,0,200)" stroke-width="0.01"/><circle cx="3.4641016151377544" cy="2.0" r="0.02" fill-opacity="0.2" stroke="rgb(100,0,200)" stroke-width="0.01"/><circle cx="0.0" cy="4.0" r="0.02" fill-opacity="0.2" stroke="rgb(100,0,200)" stroke-width="0.01"/></svg>